<svg id="Group_3" data-name="Group 3" xmlns="http://www.w3.org/2000/svg" xmlns:xlink="http://www.w3.org/1999/xlink" width="306.481" height="59.252" viewBox="0 0 306.481 59.252">
  <defs>
    <clipPath id="clip-path">
      <rect id="Rectangle_4" data-name="Rectangle 4" width="306.481" height="59.252" fill="none"/>
    </clipPath>
  </defs>
  <g id="Group_2" data-name="Group 2" clip-path="url(#clip-path)">
    <path id="Path_4" data-name="Path 4" d="M17.741,41.677a11.781,11.781,0,0,1-5.913-1.436,10.42,10.42,0,0,1-4-4.026v4.9H0V0H9.012V16.389a10.736,10.736,0,0,1,3.914-3.97A11.2,11.2,0,0,1,18.7,10.982a11.207,11.207,0,0,1,5.181,1.212,12.523,12.523,0,0,1,4.055,3.294,15.729,15.729,0,0,1,2.648,4.928,18.9,18.9,0,0,1,.957,6.055,17.011,17.011,0,0,1-1.042,6,14.957,14.957,0,0,1-2.9,4.844,13.274,13.274,0,0,1-4.394,3.21,13.03,13.03,0,0,1-5.463,1.154m-2.534-7.6a6.772,6.772,0,0,0,5.1-2.2,7.529,7.529,0,0,0,1.464-2.393,8.279,8.279,0,0,0,.535-3.013,8.983,8.983,0,0,0-.507-3.013,8.276,8.276,0,0,0-1.38-2.506,6.4,6.4,0,0,0-2.111-1.69,5.844,5.844,0,0,0-2.647-.62,6.01,6.01,0,0,0-3.915,1.465,9.665,9.665,0,0,0-2.731,3.66v6.2a7.04,7.04,0,0,0,2.619,3.013,6.543,6.543,0,0,0,3.576,1.1" fill="#fff"/>
    <path id="Path_5" data-name="Path 5" d="M50.125,41.677a17.293,17.293,0,0,1-6.73-1.239,14.662,14.662,0,0,1-4.985-3.351,14.144,14.144,0,0,1-3.069-4.9,16.828,16.828,0,0,1,0-11.659,14.149,14.149,0,0,1,3.069-4.9,15.02,15.02,0,0,1,4.985-3.38,16.951,16.951,0,0,1,6.73-1.267,16.754,16.754,0,0,1,6.7,1.267,15.089,15.089,0,0,1,4.956,3.38,14.524,14.524,0,0,1,3.1,4.9,16.162,16.162,0,0,1,1.07,5.83,16.532,16.532,0,0,1-1.042,5.829,14.162,14.162,0,0,1-3.07,4.9,14.648,14.648,0,0,1-4.984,3.351,17.3,17.3,0,0,1-6.731,1.239M43.536,26.358a8.17,8.17,0,0,0,1.859,5.6,6.025,6.025,0,0,0,4.73,2.112,5.943,5.943,0,0,0,2.591-.564,6.223,6.223,0,0,0,2.056-1.576,7.572,7.572,0,0,0,1.38-2.451,9.323,9.323,0,0,0,.506-3.125,8.175,8.175,0,0,0-1.858-5.6,5.965,5.965,0,0,0-4.675-2.112,6.117,6.117,0,0,0-4.7,2.14,7.546,7.546,0,0,0-1.379,2.45,9.325,9.325,0,0,0-.507,3.126" fill="#fff"/>
    <path id="Path_6" data-name="Path 6" d="M70.287,0H79.3V30.582q0,3.379,2.871,3.379a6.379,6.379,0,0,0,1.493-.2,5.484,5.484,0,0,0,1.492-.591l1.183,6.758a17.46,17.46,0,0,1-3.886,1.24,20.544,20.544,0,0,1-4.111.45,8.211,8.211,0,0,1-5.97-2.028,7.8,7.8,0,0,1-2.084-5.857Z" fill="#fff"/>
    <path id="Path_7" data-name="Path 7" d="M101.545,41.677a13.5,13.5,0,0,1-5.6-1.154,13,13,0,0,1-4.421-3.239,15.244,15.244,0,0,1-2.9-4.871A17.3,17.3,0,0,1,87.578,26.3a18.581,18.581,0,0,1,.957-6.026,14.775,14.775,0,0,1,2.7-4.872,12.846,12.846,0,0,1,4.139-3.239,11.73,11.73,0,0,1,5.266-1.183,10.906,10.906,0,0,1,5.6,1.465,10.123,10.123,0,0,1,3.858,3.942V0h9.011V30.976a3.143,3.143,0,0,0,.422,1.887,2.1,2.1,0,0,0,1.493.648v8.164H117.2a6.749,6.749,0,0,1-3.83-1.1,3.8,3.8,0,0,1-1.69-2.844l-.169-1.52a10.074,10.074,0,0,1-4.252,4.111,12.5,12.5,0,0,1-5.717,1.351m2.422-7.6a6.545,6.545,0,0,0,3.576-1.1,7.06,7.06,0,0,0,2.619-3.013v-6.2a8.137,8.137,0,0,0-2.731-3.689,6.393,6.393,0,0,0-3.915-1.436,5.59,5.59,0,0,0-2.675.648,7.152,7.152,0,0,0-2.112,1.718,7.591,7.591,0,0,0-1.379,2.478,9.19,9.19,0,0,0-.479,2.985,8.458,8.458,0,0,0,.535,3.041,7.457,7.457,0,0,0,1.464,2.422,6.417,6.417,0,0,0,2.253,1.577,7.171,7.171,0,0,0,2.844.563" fill="#fff"/>
    <path id="Path_8" data-name="Path 8" d="M168.139,12.353c2.786,0,3.628,1.62,3.628,2.85a1.779,1.779,0,0,1-1.944,2.008,3.412,3.412,0,0,1-2.073-1.166,2.863,2.863,0,0,0-2.072-1.23,4.019,4.019,0,0,0-3.11,1.3,10.319,10.319,0,0,1,2.332,6.672,9.032,9.032,0,0,1-3.627,7.774c-2.4,1.748-5.506,2.461-9.975,2.656-4.212.194-6.349.777-6.349,2.85a1.471,1.471,0,0,0,.971,1.49c.584.194,1.037.518,5.9.518,5.312,0,8.875.583,10.883,1.3,4.146,1.49,5.766,4.211,5.766,8.486a9.949,9.949,0,0,1-4.211,8.421,17.823,17.823,0,0,1-10.3,2.98c-3.821,0-7.838-.777-10.494-2.526a7.74,7.74,0,0,1-3.887-6.543c0-3.044,2.008-5.571,4.858-5.571.713,0,2.074.454,2.074.907s-.389.648-1.426,1.555a4.222,4.222,0,0,0-1.619,3.5c0,4.405,3.627,7.255,10.559,7.255,6.607,0,10.04-3.239,10.04-7.644a5.366,5.366,0,0,0-2.2-4.793c-1.36-.907-3.174-1.425-8.421-1.62-4.794-.194-7.709-.647-9.329-1.619a4.637,4.637,0,0,1-2.4-4.47c0-2.785,1.879-4.6,5.7-5.7-4.923-1.814-6.866-4.794-6.866-9.458a9.241,9.241,0,0,1,3.823-7.579,14.338,14.338,0,0,1,8.549-2.915,14.12,14.12,0,0,1,8.616,2.98c2.785-1.619,4.34-2.656,6.607-2.656M159.4,22.523c0-5.441-2.722-9.069-6.608-9.069-4.146,0-6.737,3.5-6.737,9,0,5.57,2.4,9.328,7,9.328,4.081,0,6.349-3.693,6.349-9.264" fill="#fff"/>
    <path id="Path_9" data-name="Path 9" d="M184.962,18.766a10.273,10.273,0,0,1,9.263-6.089c3.627,0,5.246,1.361,5.246,3.433a2.249,2.249,0,0,1-2.395,2.332c-1.232.065-1.815-.842-2.4-1.878-.713-1.231-1.361-1.814-2.462-1.814a6.455,6.455,0,0,0-4.663,2.4,9.236,9.236,0,0,0-2.009,5.831V36.192c0,3.3.972,3.692,2.463,3.886,1.748.194,2.072.259,2.072.712s-.389.519-1.1.519c-1.362,0-4.4-.195-6.609-.195-2.137,0-5.377.195-6.671.195-.584,0-.713-.259-.713-.583,0-.518,1.166-.583,2.267-.842,1.619-.389,2.591-1.231,2.591-3.757V22.782a17.026,17.026,0,0,0-.583-5.117c-.454-1.36-1.3-1.749-2.656-1.944-1.619-.258-2.785-.453-2.785-.906,0-.389.258-.584.971-.713,3.563-.648,8.227-2.008,8.811-2.073s.582.389.647.907c0,.194.129,1.749.583,5.83Z" fill="#fff"/>
    <path id="Path_10" data-name="Path 10" d="M216.319,42.085c-7.967,0-15.352-6.218-15.352-14.9,0-8.551,6.8-15.158,15.871-15.158,7.708,0,15.352,6.089,15.352,14.834,0,8.81-7,15.222-15.871,15.222m9.652-15.028c0-8.616-2.785-13.8-9.457-13.8-6.155,0-9.328,4.729-9.328,13.8,0,8.745,2.915,13.8,9.392,13.8s9.393-5.053,9.393-13.8" fill="#fff"/>
    <path id="Path_11" data-name="Path 11" d="M241.135,13c1.23,0,2.525-.193,2.98-.193a.91.91,0,0,1,1.035.907c0,.389-.194,3.237-.194,6.8V32.628c0,4.6,1.62,7.191,4.8,7.191A7.944,7.944,0,0,0,256.939,36c1.62-2.527,2.333-6.284,2.333-10.04V17.471c0-1.555-.13-2.721-2.656-2.915-1.619-.13-2.331-.195-2.331-1.037,0-.712.841-.712,1.425-.712.906,0,4.209.193,5.117.193,1.489,0,2.85-.193,3.3-.193a.919.919,0,0,1,1.037.907l-.129,2.72c-.065,1.3-.065,2.008-.065,4.08V34.83c0,2.656.259,3.823,1.618,3.823.714,0,1.749-.195,2.462-.195.584,0,.648.195.648.778,0,.517-.323.583-.972.712-2.98.647-6.476,1.619-6.931,1.814-.583.259-.583.323-1.1.323s-.713-.518-.842-1.165a49.968,49.968,0,0,1-.583-5.441h-.13c-2.591,4.729-5.7,6.606-10.688,6.606-5.765,0-9.2-3.368-9.2-9.262V17.082c0-2.138-1.036-2.4-3.237-2.591-1.1-.13-1.75-.194-1.75-.972,0-.712.841-.712,1.425-.712,1.814.064,4.405.193,5.442.193" fill="#fff"/>
    <path id="Path_12" data-name="Path 12" d="M281.93,17.47h.13a10.718,10.718,0,0,1,9.652-5.441c8.291,0,14.769,6.413,14.769,15.612,0,8.356-6.478,14.445-14.769,14.445-4.081,0-6.737-1.166-8.875-3.433V54.912a2.353,2.353,0,0,0,2.332,2.461c1.49.065,2.2.195,2.2.648s-.388.583-1.23.583c-1.814,0-4.081-.194-6.154-.194s-4.34.194-6.154.194c-.842,0-1.231-.13-1.231-.583,0-.583,1.3-.583,2.2-.648a2.379,2.379,0,0,0,2.331-2.461V18.054c0-2.2-.777-2.656-2.267-2.721-1.619-.065-2.267.194-2.267-.518,0-.389.583-.584,1.425-.778,2.462-.518,7.126-2.008,7.45-2.008s.453.259.453.583Zm9-3.627c-5.894,0-8.485,3.757-8.485,9.781v8.227c0,6.089,2.85,8.421,8.226,8.421,5.765,0,9.328-4.988,9.328-13.344,0-8.551-3.239-13.085-9.069-13.085" fill="#fff"/>
    <rect id="Rectangle_3" data-name="Rectangle 3" width="8.167" height="8.167" transform="translate(126.909 33.511)" fill="#fff"/>
  </g>
</svg>
